<svg height="512pt" viewBox="0 -10 512.00181 512" width="512pt" xmlns="http://www.w3.org/2000/svg"><path d="m138.238281 266.242188c33.078125 0 66.558594-12.308594 66.558594-35.839844s-33.484375-35.839844-66.558594-35.839844-66.558593 12.308594-66.558593 35.839844 33.484374 35.839844 66.558593 35.839844zm0-51.199219c29.933594 0 46.082031 10.894531 46.082031 15.359375s-16.148437 15.359375-46.082031 15.359375c-29.929687 0-46.078125-10.894531-46.078125-15.359375s16.148438-15.359375 46.078125-15.359375zm0 0"/><path d="m61.441406 368.640625c-5.652344 0-10.242187 4.578125-10.242187 10.238281v61.441406c0 5.664063 4.589843 10.242188 10.242187 10.242188s10.238282-4.578125 10.238282-10.242188v-61.441406c0-5.660156-4.585938-10.238281-10.238282-10.238281zm0 0"/><path d="m61.441406 307.199219c-5.652344 0-10.242187 4.578125-10.242187 10.242187v30.691406c0 5.660157 4.589843 10.238282 10.242187 10.238282s10.238282-4.578125 10.238282-10.238282v-30.691406c0-5.664062-4.585938-10.242187-10.238282-10.242187zm0 0"/><path d="m317.441406 368.640625c-5.652344 0-10.242187 4.578125-10.242187 10.238281v61.441406c0 5.664063 4.589843 10.242188 10.242187 10.242188s10.238282-4.578125 10.238282-10.242188v-61.441406c0-5.660156-4.585938-10.238281-10.238282-10.238281zm0 0"/><path d="m317.441406 307.199219c-5.652344 0-10.242187 4.578125-10.242187 10.242187v30.691406c0 5.660157 4.589843 10.238282 10.242187 10.238282s10.238282-4.578125 10.238282-10.238282v-30.691406c0-5.664062-4.585938-10.242187-10.238282-10.242187zm0 0"/><path d="m261.121094 102.398438c33.074218 0 66.558594-12.308594 66.558594-35.839844s-33.484376-35.839844-66.558594-35.839844c-33.074219 0-66.558594 12.308594-66.558594 35.839844s33.484375 35.839844 66.558594 35.839844zm0-51.199219c29.933594 0 46.082031 10.894531 46.082031 15.359375s-16.148437 15.359375-46.082031 15.359375-46.082032-10.894531-46.082032-15.359375 16.148438-15.359375 46.082032-15.359375zm0 0"/><path d="m373.761719 266.242188c33.074219 0 66.558593-12.308594 66.558593-35.839844s-33.484374-35.839844-66.558593-35.839844-66.558594 12.308594-66.558594 35.839844c-.003906 23.53125 33.480469 35.839844 66.558594 35.839844zm0-51.199219c29.929687 0 46.078125 10.894531 46.078125 15.359375s-16.148438 15.359375-46.078125 15.359375c-29.933594 0-46.082031-10.894531-46.082031-15.359375s16.148437-15.359375 46.082031-15.359375zm0 0"/><path d="m511.855469 255.109375c.308593-5.507813-.347657-11.089844-2.109375-16.457031-14.828125-45.445313-54.136719-74.8125-100.148438-74.8125h-10.238281v-69.640625l-.144531-2.929688c.308594-5.507812-.347656-11.089843-2.109375-16.457031-12.351563-37.855469-28.679688-74.8125-79.667969-74.8125h-112.640625c-50.984375 0-67.316406 36.957031-79.675781 74.8125-1.199219 3.65625-1.863282 7.414062-2.089844 11.183594l-.152344.03125v77.8125h-40.957031c-50.988281 0-67.316406 36.957031-79.679687 74.8125-1.199219 3.65625-1.863282 7.414062-2.089844 11.183594l-.152344.03125v177.714843c0 35.257813 28.679688 63.9375 63.9375 63.9375h148.613281c16.835938 0 32.125-6.59375 43.550781-17.265625 11.738282 10.917969 27.191407 17.265625 43.359376 17.265625h148.613281c35.246093 0 63.925781-28.679687 63.925781-63.9375v-169.542969zm-102.253907-70.789063c36.976563 0 68.660157 23.816407 80.679688 60.695313 1.15625 3.53125 1.421875 7.144531.984375 10.65625l-.0625.398437c-.113281.800782-.347656 1.589844-.542969 2.378907-.164062.675781-.335937 1.351562-.5625 2.003906-.289062.851563-.625 1.691406-1.015625 2.511719-.441406.929687-.960937 1.832031-1.523437 2.722656-.378906.605469-.757813 1.199219-1.1875 1.773438-.882813 1.144531-1.84375 2.210937-2.890625 3.140624-.304688.289063-.644531.535157-.972657.800782-1.035156.839844-2.128906 1.585937-3.277343 2.222656-.304688.171875-.613281.347656-.929688.5-1.269531.628906-2.613281 1.117188-3.984375 1.488281-.277344.070313-.53125.183594-.808594.253907-1.660156.390624-3.390624.613281-5.160156.613281h-189.175781c-.898437 0-1.800781-.171875-2.691406-.285157v-18.15625l-.144531-2.929687c.121093-2.242187.082031-4.496094-.125-6.738281-.039063-.417969-.121094-.835938-.171876-1.257813-.347656-2.847656-.902343-5.683593-1.800781-8.457031-2.195312-6.730469-4.539062-13.425781-7.160156-19.886719.253906-.695312.421875-1.34375.644531-2.027343.308594-.933594.605469-1.84375.871094-2.753907.429688-1.464843.800781-2.878906 1.125-4.273437.183594-.777344.378906-1.554688.53125-2.3125.320312-1.515625.574219-2.949219.800781-4.355469.082031-.53125.195313-1.074219.277344-1.585937.277344-1.824219.503906-3.542969.707031-5.121094 1.546875-12.019532 1.546875-12.019532 14.683594-12.019532zm-265.003906-103.148437c13.128906-40.253906 26.050782-60.691406 60.203125-60.691406h112.640625c34.148438 0 47.074219 20.4375 60.199219 60.691406 1.15625 3.535156 1.425781 7.148437.984375 10.671875l-.0625.398438c-.113281.789062-.335938 1.566406-.53125 2.355468-.175781.683594-.339844 1.371094-.574219 2.035156-.285156.839844-.625 1.671876-1.003906 2.488282-.453125.945312-.964844 1.855468-1.535156 2.746094-.378907.605468-.746094 1.199218-1.179688 1.761718-.878906 1.148438-1.84375 2.210938-2.886719 3.144532-.308593.285156-.644531.53125-.972656.796874-1.035156.839844-2.132812 1.589844-3.277344 2.222657-.308593.175781-.617187.347656-.933593.503906-1.269531.625-2.609375 1.117187-3.980469 1.484375-.277344.074219-.535156.183594-.808594.253906-1.671875.378906-3.402344.605469-5.171875.605469h-189.175781c-1.769531 0-3.5-.226563-5.179688-.613281-.285156-.0625-.53125-.175782-.808593-.257813-1.371094-.378906-2.703125-.859375-3.980469-1.484375-.320312-.152344-.625-.328125-.933594-.5-1.148437-.636718-2.242187-1.382812-3.277344-2.222656-.328124-.269531-.664062-.523438-.972656-.800781-1.042968-.941407-2-2.007813-2.886718-3.144531-.429688-.5625-.800782-1.15625-1.179688-1.761719-.574219-.890625-1.09375-1.800781-1.535156-2.742188-.378906-.820312-.714844-1.648437-1.003906-2.492187-.238282-.675782-.398438-1.351563-.574219-2.035156-.195313-.777344-.421875-1.566407-.53125-2.355469l-.0625-.398438c-.429688-3.511719-.164063-7.136719.992187-10.660156zm-1.238281 45.261719c.535156.335937 1.125.59375 1.679687.910156.882813.511719 1.769532 1.007812 2.683594 1.457031.726563.347657 1.464844.664063 2.203125.972657 1.023438.429687 2.066407.808593 3.121094 1.15625.707031.234374 1.414063.460937 2.140625.65625 1.210938.328124 2.449219.582031 3.6875.800781.625.109375 1.230469.246093 1.863281.335937 1.90625.246094 3.832031.410156 5.789063.410156h189.171875c1.957031 0 3.882812-.164062 5.789062-.410156.632813-.082031 1.238281-.226562 1.863281-.335937 1.246094-.21875 2.476563-.472657 3.683594-.800781.730469-.195313 1.4375-.421876 2.144532-.65625 1.0625-.347657 2.097656-.738282 3.121093-1.15625.746094-.308594 1.484375-.625 2.203125-.972657.910156-.441406 1.800782-.945312 2.679688-1.457031.554687-.316406 1.148437-.570312 1.679687-.910156v37.40625h-92.160156c-3.511719 0-6.625.214844-9.453125.59375-.949219.132812-1.675781.378906-2.558594.542968-1.730468.335938-3.480468.65625-4.945312 1.136719-.882813.285157-1.578125.683594-2.367188 1.035157-1.195312.511718-2.425781 1.003906-3.4375 1.628906-.71875.4375-1.28125.972656-1.914062 1.464844-.851563.65625-1.722656 1.308593-2.429688 2.054687-.542968.574219-.980468 1.21875-1.441406 1.835937-.59375.785157-1.199219 1.566407-1.691406 2.425782-.390625.695312-.714844 1.433594-1.042969 2.160156-.398437.890625-.808594 1.78125-1.125 2.734375-.265625.789063-.503906 1.617187-.71875 2.4375-.265625.980469-.53125 1.964844-.734375 2.988281-.1875.878906-.351562 1.78125-.492188 2.691406-.082031.523438-.207031 1.007813-.285156 1.539063-1.4375-1.90625-2.941406-3.730469-4.527344-5.480469-.042968-.042968-.074218-.082031-.113281-.113281-1.589843-1.75-3.265625-3.410156-5.027343-4.984375-.0625-.0625-.132813-.113281-.207032-.175781-1.769531-1.566407-3.632812-3.042969-5.589844-4.421875-.113281-.082032-.226562-.15625-.347656-.234375-1.9375-1.34375-3.972656-2.582031-6.105468-3.71875-.203126-.113281-.417969-.226563-.625-.328125-2.066407-1.066406-4.226563-2.039063-6.492188-2.898438-.355469-.132812-.707031-.277344-1.074219-.421875-2.148437-.777343-4.414062-1.453125-6.757812-2.039062-.542969-.128907-1.0625-.296875-1.617188-.429688-2.285156-.507812-4.691406-.898437-7.160156-1.214843-.675781-.09375-1.308594-.21875-1.996094-.300782-3.136719-.304687-6.402343-.507812-9.863281-.507812h-51.203125zm-121.640625 118.582031c13.128906-40.257813 26.050781-60.695313 60.203125-60.695313h112.636719c3.894531 0 7.4375.335938 10.804687.871094.859375.132813 1.679688.328125 2.507813.5 2.542968.523438 4.945312 1.199219 7.210937 2.039063.746094.277343 1.527344.53125 2.253907.851562 2.417968 1.042969 4.660156 2.3125 6.800781 3.757813.398437.277344.835937.460937 1.226562.746094 2.347657 1.699218 4.496094 3.707031 6.546875 5.898437.949219 1.035156 1.84375 2.253906 2.761719 3.398437 1.054687 1.320313 2.101563 2.664063 3.09375 4.125.992187 1.476563 1.945313 3.074219 2.886719 4.710938.851562 1.472656 1.679687 2.988281 2.488281 4.578125.902344 1.761719 1.792969 3.570313 2.664063 5.507813.902343 2.007812 1.78125 4.117187 2.652343 6.296874.625 1.558594 1.261719 3.042969 1.882813 4.722657 1.496094 4.011719 2.96875 8.179687 4.445312 12.6875.683594 2.085937 1.035156 4.214843 1.136719 6.347656.019531.378906-.042969.757813-.042969 1.136719 0 1.707031-.152344 3.410156-.507812 5.078125-.0625.285156-.125.574219-.195313.851562-.019531.101563-.0625.191407-.082031.296875-.492188 1.820313-1.167969 3.601563-2.089844 5.292969-.101562.183594-.203125.367187-.304687.550781-1.0625 1.84375-2.347657 3.585938-3.902344 5.144532l-1.414063 1.410156c-.109374.101562-.234374.195312-.347656.289062-1.035156.839844-2.128906 1.585938-3.277344 2.222656-.304687.171876-.613281.347657-.929687.5-1.269531.625-2.613281 1.117188-3.984375 1.484376-.277344.074218-.53125.1875-.808594.257812-1.699218.378906-3.429687.601562-5.203125.601562h-189.179687c-1.769532 0-3.5-.222656-5.179688-.613281-.285156-.0625-.535156-.175781-.808594-.253906-1.371093-.378906-2.703124-.863281-3.984374-1.484375-.316407-.15625-.625-.328125-.929688-.503906-1.148438-.632813-2.242188-1.382813-3.277344-2.222656-.328125-.265626-.667968-.523438-.972656-.800782-1.046875-.941406-2-2.003906-2.890625-3.140625-.429687-.566406-.796875-1.15625-1.175781-1.761719-.574219-.890624-1.097656-1.804687-1.535156-2.746093-.378907-.820313-.71875-1.648438-1.003907-2.488281-.238281-.675782-.402343-1.351563-.574219-2.039063-.195312-.777344-.421874-1.566406-.535156-2.355469l-.058594-.398437c-.429687-3.507813-.164062-7.132813.992188-10.652344zm190.820312 226.027344h-148.601562c-23.960938 0-43.457031-19.488281-43.457031-43.449219v-137.320312c.53125.339843 1.125.597656 1.675781.914062.882812.511719 1.773438 1.003906 2.683594 1.453125.726562.347656 1.464844.664063 2.203125.972656 1.023437.429688 2.066406.808594 3.125 1.15625.707031.238281 1.414062.460938 2.140625.65625 1.207031.328125 2.445312.585938 3.6875.800781.625.113282 1.226562.246094 1.863281.335938 1.914063.238281 3.835937.398438 5.792969.398438h189.175781c1.957031 0 3.878906-.160157 5.785156-.410157.636719-.078125 1.242188-.222656 1.863281-.335937 1.25-.214844 2.480469-.472656 3.6875-.800782.726563-.191406 1.433594-.417968 2.140626-.65625 1.066406-.347656 2.101562-.734374 3.125-1.15625.746093-.304687 1.484374-.625 2.203124-.972656.910157-.441406 1.800782-.941406 2.679688-1.453125.554688-.316406 1.148438-.574219 1.679688-.910156v137.347656c0 2.640625-.328126 5.191407-.777344 7.699219-.195313 1.046875-.480469 2.070312-.746094 3.09375-.347656 1.351562-.757812 2.664062-1.230469 3.960938-.492187 1.3125-1.003906 2.613281-1.617187 3.882812-.367188.769531-.800782 1.496094-1.21875 2.230469-.839844 1.496093-1.679688 2.992187-2.703125 4.414062l-.101563.144531c-7.910156 10.855469-20.628906 18.003907-35.058594 18.003907zm278.980469-43.460938c0 23.960938-19.496093 43.460938-43.460937 43.460938h-148.601563c-11.734375 0-22.628906-4.640625-30.75-12.925781 2.40625-4.414063 4.25-9.171876 5.570313-14.128907.125-.453125.238281-.914062.347656-1.363281.472656-1.921875.839844-3.890625 1.125-5.875.082031-.574219.195312-1.136719.269531-1.710938.277344-2.457031.460938-4.925781.460938-7.445312v-130.722656c.886719.0625 1.792969.09375 2.691406.09375h189.175781c1.957032 0 3.878906-.164063 5.785156-.410156.636719-.082032 1.238282-.226563 1.863282-.335938 1.25-.21875 2.480468-.472656 3.6875-.800781.726562-.195313 1.433594-.421875 2.140625-.65625 1.066406-.347657 2.101562-.738281 3.125-1.15625.746093-.308594 1.484375-.625 2.203125-.972657.910156-.441406 1.800781-.945312 2.679687-1.457031.554688-.316406 1.148438-.570312 1.679688-.910156v137.320313h.007812zm0 0"/></svg>