<?xml  version="1.0" encoding="iso-8859-1"?>
<!-- Generator: Adobe Illustrator 19.0.0, SVG Export Plug-In . SVG Version: 6.00 Build 0)  -->
<svg fill="white" version="1.1" id="Capa_1" xmlns="http://www.w3.org/2000/svg" xmlns:xlink="http://www.w3.org/1999/xlink" x="0px" y="0px"
	 viewBox="0 0 512 512" style="enable-background:new 0 0 512 512;" xml:space="preserve">
<g>
	<g>
		<path d="M208.629,398.708c-5.523,0-10,4.477-10,10v0.287c0,5.523,4.477,10,10,10c5.523,0,10-4.477,10-10v-0.287
			C218.629,403.185,214.152,398.708,208.629,398.708z"/>
	</g>
</g>
<g>
	<g>
		<path d="M234.901,259.897l-79.45-51.662c-3.313-2.155-7.587-2.154-10.902,0l-79.451,51.662c-2.837,1.845-4.549,5-4.549,8.384
			c0,3.384,1.711,6.538,4.549,8.384l79.451,51.662c1.657,1.078,3.554,1.616,5.451,1.616c1.897,0,3.794-0.539,5.451-1.616
			l79.45-51.662c2.837-1.845,4.549-5,4.549-8.384C239.45,264.897,237.739,261.742,234.901,259.897z M150,308.014l-61.106-39.733
			L150,228.547l61.106,39.733L150,308.014z"/>
	</g>
</g>
<g>
	<g>
		<path d="M467.251,61.085C439.041,38.46,401.662,26,362,26s-77.041,12.46-105.252,35.085C227.892,84.228,212,115.194,212,148.28
			c0,2.945,0.144,5.885,0.401,8.815C193.39,149.977,172.255,146,150,146C67.29,146,0,200.855,0,268.28v0.001v95.439
			c0,33.086,15.892,64.052,44.748,87.196C72.959,473.54,110.338,486,150,486s77.041-12.46,105.251-35.085
			C284.108,427.771,300,396.805,300,363.719v-8.62c19.372,7.152,40.518,10.9,62,10.9c39.662,0,77.041-12.46,105.251-35.085
			C496.108,307.772,512,276.805,512,243.719V148.28C512,115.194,496.108,84.228,467.251,61.085z M280,363.719
			c0,36.591-24.554,68.749-61.373,86.829v-12.846c0-5.523-4.477-10-10-10s-10,4.477-10,10v20.868
			C183.598,463.357,167.185,466,150,466c-71.682,0-130-45.883-130-102.281v-34.485c25.941,36.626,74.498,61.328,130,61.328
			s104.059-24.702,130-61.328V363.719z M242.66,339.811c-24.726,19.83-57.633,30.75-92.66,30.75
			c-35.027,0-67.934-10.921-92.66-30.75C33.261,320.499,20,295.096,20,268.281s13.261-52.218,37.34-71.53
			C82.066,176.921,114.973,166,150,166c35.027,0,67.934,10.921,92.66,30.751c24.079,19.312,37.34,44.715,37.34,71.53
			S266.739,320.499,242.66,339.811z M492,243.719c0,36.591-24.554,68.749-61.373,86.829v-12.845c0-5.523-4.477-10-10-10
			s-10,4.477-10,10v20.867C395.598,343.357,379.185,346,362,346c-21.741,0-43.035-4.291-62-12.426V268.28v-0.001
			c0-2.943-0.136-5.861-0.388-8.754c19.467,7.247,40.7,11.035,62.388,11.035c39.662,0,77.041-12.46,105.251-35.085
			c9.778-7.842,18.061-16.584,24.749-26.001V243.719z M362,250.561c-23.882,0-47.075-5.118-67.358-14.833
			c-9.456-28.143-30.701-52.298-60.455-68.716C232.734,160.86,232,154.577,232,148.28C232,91.883,290.318,46,362,46
			s130,45.883,130,102.28C492,204.678,433.682,250.561,362,250.561z"/>
	</g>
</g>
<g>
	<g>
		<path d="M420.629,278.708c-5.523,0-10,4.477-10,10v0.287c0,5.523,4.477,10,10,10s10-4.477,10-10v-0.287
			C430.629,283.185,426.152,278.708,420.629,278.708z"/>
	</g>
</g>
<g>
	<g>
		<path d="M446.901,139.897l-79.45-51.662c-3.314-2.155-7.588-2.155-10.902,0l-79.45,51.662c-2.837,1.845-4.549,4.999-4.549,8.384
			c0,3.384,1.711,6.538,4.549,8.384l79.45,51.662c1.657,1.078,3.554,1.616,5.451,1.616c1.897,0,3.794-0.539,5.451-1.616
			l79.45-51.662c2.837-1.845,4.549-4.999,4.549-8.384C451.45,144.897,449.739,141.742,446.901,139.897z M362,188.014l-61.106-39.733
			L362,108.547l61.106,39.733L362,188.014z"/>
	</g>
</g>
<g>
</g>
<g>
</g>
<g>
</g>
<g>
</g>
<g>
</g>
<g>
</g>
<g>
</g>
<g>
</g>
<g>
</g>
<g>
</g>
<g>
</g>
<g>
</g>
<g>
</g>
<g>
</g>
<g>
</g>
</svg>
