<?xml version="1.0" encoding="utf-8"?>
<!-- Generator: Adobe Illustrator 24.0.3, SVG Export Plug-In . SVG Version: 6.00 Build 0)  -->
<svg version="1.1" id="Capa_1" xmlns="http://www.w3.org/2000/svg" xmlns:xlink="http://www.w3.org/1999/xlink" x="0px" y="0px"
	 viewBox="0 0 40 40" style="enable-background:new 0 0 40 40;" xml:space="preserve">
<g>
	<path d="M39.35,19.12c0-1.46-1.18-2.64-2.64-2.64h-0.92c-0.44-4.44-4.2-7.92-8.75-7.92c-0.04,0-0.08,0.01-0.12,0.01
		c-0.39-1.52-1.76-2.65-3.4-2.65c-1.28,0-2.43,0.71-3.05,1.8c-0.09-0.01-0.17-0.02-0.26-0.02c-1.33-1.67-3.34-2.66-5.49-2.66
		c-2.79,0-5.25,1.62-6.39,4.14C7.41,9.82,6.8,10.88,6.8,12.08c0,0.04,0.01,0.08,0.01,0.12c-1.52,0.39-2.65,1.76-2.65,3.4
		c0,0.3,0.05,0.59,0.13,0.88H3.28c-1.46,0-2.64,1.18-2.64,2.64c0,6.98,5.45,12.7,12.32,13.15v1.8c0,0.49,0.39,0.88,0.88,0.88h12.32
		c0.49,0,0.88-0.39,0.88-0.88v-1.8C33.9,31.82,39.35,26.1,39.35,19.12z M34.02,16.48h-0.9c-0.43-2.98-2.99-5.28-6.09-5.28
		c-1.99,0-3.81,0.96-4.94,2.5c-0.05-0.34-0.17-0.66-0.35-0.95c1.33-1.53,3.26-2.43,5.3-2.43C30.62,10.32,33.59,13.01,34.02,16.48z
		 M10.32,10.32c0.4,0,0.76,0.14,1.05,0.36c0,0,0.01,0.01,0.01,0.01c0,0,0.01,0,0.01,0c0.3,0.23,0.52,0.55,0.62,0.92
		c-0.36,0.05-0.71,0.18-1.02,0.4c-0.59,0.42-0.94,1.07-1.01,1.79c-0.81-0.16-1.42-0.87-1.42-1.72C8.56,11.11,9.35,10.32,10.32,10.32
		z M20.34,11.68c-0.49-0.14-1.02-0.13-1.51,0.07c-0.24,0.1-0.51,0.02-0.68-0.19c0.05-0.11,0.09-0.23,0.09-0.37
		c0-0.97,0.79-1.76,1.76-1.76c0.71,0,1.31,0.42,1.59,1.04C21.14,10.84,20.72,11.24,20.34,11.68z M16.58,10.39
		c-0.18-0.04-0.36-0.07-0.54-0.07c-0.83,0-1.59,0.43-2.04,1.16c-0.05,0.09-0.13,0.15-0.2,0.2c-0.07-0.63-0.3-1.21-0.66-1.69
		c0.45-0.35,1-0.55,1.58-0.55c0.73,0,1.4,0.31,1.9,0.84C16.61,10.32,16.59,10.35,16.58,10.39z M11.71,14.12
		c-0.01-0.27,0.1-0.52,0.31-0.67c0.1-0.07,0.31-0.18,0.57-0.07c1.07,0.44,2.3,0.02,2.92-0.98c0.25-0.41,0.83-0.41,1.08,0
		c0.62,1.01,1.85,1.42,2.92,0.98c0.26-0.11,0.47,0,0.57,0.07c0.21,0.15,0.32,0.39,0.31,0.66c-0.05,1,0.49,1.92,1.32,2.36H10.38
		C11.22,16.04,11.76,15.12,11.71,14.12z M30.43,16.48c-0.39-1.51-1.76-2.64-3.39-2.64c-1.39,0-2.58,0.82-3.15,1.99
		c-0.18-0.24-0.42-0.45-0.68-0.6c0.77-1.38,2.22-2.26,3.83-2.26c2.12,0,3.9,1.51,4.31,3.52H30.43z M28.55,16.48h-3.03
		c0.31-0.52,0.87-0.88,1.51-0.88C27.69,15.6,28.25,15.96,28.55,16.48z M23.52,7.68c0.74,0,1.36,0.46,1.63,1.1
		c-0.72,0.16-1.41,0.4-2.07,0.73c-0.24-0.44-0.57-0.81-0.96-1.11C22.44,7.96,22.95,7.68,23.52,7.68z M14.72,6.8
		c1.32,0,2.57,0.5,3.53,1.36c-0.26,0.15-0.51,0.33-0.73,0.54c-0.78-0.65-1.77-1.02-2.8-1.02c-1.12,0-2.17,0.43-2.98,1.18
		c-0.31-0.14-0.64-0.22-0.98-0.26C11.74,7.48,13.16,6.8,14.72,6.8z M5.92,15.6c0-0.84,0.6-1.55,1.39-1.72
		c0.36,0.59,0.88,1.07,1.51,1.37c-0.45,0.29-0.79,0.72-0.98,1.23H6.17C6.03,16.26,5.92,15.96,5.92,15.6z M25.28,33.2H14.72v-0.88
		h10.56V33.2z M26.16,30.56H13.84c-6.31,0-11.44-5.13-11.44-11.44c0-0.48,0.39-0.88,0.88-0.88h2.44h2.83h14.96h11.44h1.76
		c0.48,0,0.88,0.39,0.88,0.88C37.6,25.43,32.46,30.56,26.16,30.56z"/>
	<circle cx="20" cy="22.64" r="0.88"/>
	<circle cx="24.4" cy="22.64" r="0.88"/>
	<circle cx="15.6" cy="22.64" r="0.88"/>
</g>
</svg>
